<svg aria-hidden="true" style="position: absolute; width: 0; height: 0; overflow: hidden;" version="1.1" xmlns="http://www.w3.org/2000/svg" xmlns:xlink="http://www.w3.org/1999/xlink">
<defs>
<symbol id="phone-book" viewBox="0 0 32 32">
<path d="M6.304 5.021c0 0.724-0.557 1.311-1.244 1.311h-2.696c-0.689-0.001-1.246-0.586-1.246-1.311v0c0-0.723 0.557-1.31 1.246-1.31h2.695c0.688 0 1.245 0.587 1.245 1.31v0zM6.304 12.341c0-0.723-0.557-1.312-1.244-1.312h-2.696c-0.689 0-1.246 0.587-1.246 1.312v0c0 0.723 0.557 1.311 1.246 1.311h2.695c0.688-0.002 1.245-0.588 1.245-1.311v0zM6.304 19.657c0-0.723-0.557-1.311-1.244-1.311h-2.696c-0.689 0.001-1.246 0.586-1.246 1.311v0c0 0.723 0.557 1.312 1.246 1.312h2.695c0.688 0 1.245-0.587 1.245-1.312v0zM6.304 26.975c0-0.722-0.557-1.309-1.244-1.309h-2.696c-0.689 0.001-1.246 0.586-1.246 1.309v0c0 0.725 0.557 1.312 1.246 1.312h2.695c0.688 0 1.245-0.587 1.245-1.312v0zM30.881 1.432v29.137c0 0.789-0.64 1.431-1.43 1.431h-24.284c-0.791 0-1.432-0.64-1.432-1.431v-1.248h1.323c1.228 0 2.228-1.051 2.228-2.343 0-1.291-1-2.342-2.228-2.342h-1.323v-2.635h1.323c1.228 0 2.228-1.051 2.228-2.343s-1-2.341-2.228-2.341h-1.323v-2.634h1.323c1.228 0 2.228-1.051 2.228-2.343s-1-2.343-2.228-2.343h-1.323v-2.635h1.323c1.228 0 2.228-1.051 2.228-2.343s-1-2.341-2.228-2.341h-1.323v-1.248c0-0.791 0.64-1.432 1.432-1.432h24.285c0.789 0 1.429 0.64 1.429 1.432zM14.654 12.153c0.034-0.425 0.305-0.883 0.654-0.836 0.392 0.055 1.36 0.769 1.709 0.952 0.95 0.488 2.481-3.292 1.771-3.737-0.557-0.344-1.055-0.813-1.661-1.064-0.102-0.042-0.214-0.042-0.324-0.065-2.477-0.555-5.005 1.583-5.263 4.801-0.101 1.23-0.157 2.461-0.181 3.693h-0.006c0.002 0.034 0.004 0.066 0.004 0.101s-0.002 0.064-0.004 0.101h0.006c0.021 1.232 0.079 2.464 0.181 3.693 0.258 3.215 2.786 5.353 5.263 4.799 0.11-0.021 0.222-0.022 0.324-0.063 0.606-0.251 1.104-0.718 1.661-1.065 0.71-0.444-0.82-4.222-1.771-3.737-0.348 0.183-1.316 0.9-1.709 0.954-0.346 0.048-0.62-0.413-0.654-0.837-0.091-1.121-0.010-2.555-0.002-3.744h0.002c0-0.034 0-0.067 0-0.101s0-0.068 0-0.101h-0.002c-0.008-1.191-0.089-2.624 0.002-3.746zM20.818 19.222c1.778-1.778 1.778-4.668 0-6.446l-0.945 0.947c1.258 1.256 1.258 3.299 0 4.552l0.945 0.946zM22.506 20.906c2.704-2.704 2.704-7.107-0.002-9.814l-0.945 0.945c2.186 2.186 2.186 5.74 0 7.925l0.947 0.944zM24.138 9.461l-0.945 0.944c3.083 3.084 3.083 8.104 0 11.189l0.945 0.945c3.604-3.607 3.604-9.473 0-13.078z"></path>
</symbol>
</defs>
</svg>
